<svg xmlns="http://www.w3.org/2000/svg" viewBox="0 0 300 300" width="100" height="100">
  <rect width="100%" height="100%" fill="#6a9ca4" rx="50%" ry="50%"/>
  <g fill="white" transform="translate(80, 60) scale(0.45)">
    <path d="M170 160a30 30 0 1 0 0-60 30 30 0 0 0 0 60zm-80 0a30 30 0 1 0 0-60 30 30 0 0 0 0 60z"/>
    <path d="M170 180c-13.3 0-24.5 6.9-31.3 16.3-5.4-3.2-11.8-5.3-18.7-5.3-6.9 0-13.3 2.1-18.7 5.3C94.5 186.9 83.3 180 70 180c-27.6 0-50 22.4-50 50v20c0 5.5 4.5 10 10 10h280c5.5 0 10-4.5 10-10v-20c0-27.6-22.4-50-50-50-13.3 0-24.5 6.9-31.3 16.3-5.4-3.2-11.8-5.3-18.7-5.3s-13.3 2.1-18.7 5.3c-6.8-9.4-18-16.3-31.3-16.3z"/>
    <path d="M170 70a40 40 0 0 0-30 13.5A40 40 0 0 0 70 40v20c0 22.1 17.9 40 40 40 11 0 21-4.5 28.2-11.7 3.4 19.2 20.1 33.7 40.1 33.7 22.5 0 40.7-18.2 40.7-40.7S200.5 40.5 178 40.5c-2.2 0-4.4.2-6.5.5.8-3.6 1.5-7.2 1.5-11V10c-24.2 12-40.8 36.3-43 64.1A39 39 0 0 0 130 70a40 40 0 0 0 40 40V90c0-11-9-20-20-20z"/>
    <circle cx="170" cy="30" r="10"/>
  </g>
</svg> 