<svg xmlns="http://www.w3.org/2000/svg" viewBox="0 0 640 512" width="32" height="32">
  <!-- Font Awesome Pro 6.0.0 by @fontawesome - https://fontawesome.com License - https://fontawesome.com/license (Commercial License) -->
  <rect width="100%" height="100%" fill="#6a9ca4" rx="50%" ry="50%"/>
  <path d="M136 96c26.5 0 48-21.5 48-48S162.5 0 136 0 88 21.5 88 48s21.5 48 48 48zm352 0c26.5 0 48-21.5 48-48S514.5 0 488 0s-48 21.5-48 48 21.5 48 48 48zM256 270.3l-9.5-64.5c-2.4-12.6-13.4-22.1-27-22.1s-24.6 9.5-27 22.3l-28.3 192.7c-2 13.8 7.6 26.6 21.4 28.7 13.8 2 26.6-7.6 28.7-21.4l14-96 8.7 71.9c2.2 13.1 12.8 22.9 25.8 23.1C276 404.9 286.5 394.7 288 381.6l9.5-67.8 9.5 67.8c1.5 13.1 12.8 23.3 26.1 23.1 13.1-.2 23.6-10 25.8-23.1l8.7-71.9 14 96c2 13.8 14.8 23.4 28.7 21.4 13.8-2 23.4-14.8 21.4-28.7l-28.3-192.7c-2.4-12.8-13.4-22.3-27-22.3s-24.6 9.5-27 22.1l-9.5 64.5H256zM175.5 158.3c-14.5-3.1-28.9 6.2-32 20.6l-43.7 205c-3.1 14.5 6.2 28.9 20.6 32 14.5 3.1 28.9-6.2 32-20.6l43.7-205c3.2-14.5-6.1-28.9-20.6-32zm288.9 0c-14.5 3.1-23.8 17.5-20.6 32l43.7 205c3.1 14.5 17.5 23.8 32 20.6 14.5-3.1 23.8-17.5 20.6-32l-43.7-205c-3.1-14.4-17.4-23.7-32-20.6z" fill="white"/>
</svg> 